<svg width="57" height="29" viewBox="0 0 57 29" fill="none" xmlns="http://www.w3.org/2000/svg">
<path d="M54.9161 25.564H56.5255C56.8992 25.564 56.9603 25.6614 56.9603 25.9988V28.0082C56.9603 28.353 56.8992 28.443 56.5255 28.443H10.7158C10.3421 28.443 10.2734 28.353 10.2734 28.0082V25.9988C10.2734 25.6614 10.3345 25.564 10.7158 25.564H11.6159H54.9161Z" fill="black"/>
<path d="M44.6427 0.125H46.2521C46.6258 0.125 46.6945 0.214972 46.6945 0.559858V2.5692C46.6945 2.90659 46.6334 3.00406 46.2521 3.00406H0.442386C0.0686472 3.00406 0 2.91408 0 2.5692V0.559858C0 0.214972 0.0610199 0.125 0.442386 0.125H1.34242H44.6427Z" fill="black"/>
<path d="M31.1195 8.17461C31.3331 8.63946 31.4856 9.39671 31.4933 9.93653C31.4933 9.98902 31.5161 10.1989 31.7297 10.049C32.1645 9.75659 32.7747 9.58415 33.4001 9.58415C34.3306 9.58415 34.5976 10.4689 34.6739 11.4135L34.6586 17.614C34.6739 19.031 34.3917 21.8951 36.6341 21.8951H40.3867C40.7605 21.8951 40.8215 21.8051 40.8215 21.4677V19.4959C40.8215 19.196 40.7605 19.0685 40.3867 19.0685H38.907C38.4723 19.0235 38.5943 18.0114 38.5943 16.4894V10.4539L38.579 9.7116C38.4951 7.36488 36.9544 6.39769 35.04 6.3902C33.3086 6.3827 32.0806 7.08747 31.2111 7.75475C31.1424 7.82972 30.9975 7.96468 31.1195 8.17461Z" fill="black"/>
<path d="M25.7723 20.4475C25.5587 19.9827 25.4061 19.2254 25.3985 18.6856C25.3985 18.6331 25.3756 18.4232 25.1545 18.5732C24.7197 18.8656 24.1095 19.038 23.4841 19.038C22.5459 19.038 22.2866 18.1533 22.2103 17.2086L22.2256 11.0081C22.2103 9.59111 22.4925 6.72705 20.2501 6.72705H16.5051C16.1313 6.72705 16.0703 6.81702 16.0703 7.15441V9.12626C16.0703 9.42616 16.1313 9.55362 16.5051 9.55362H17.9848C18.4195 9.6061 18.2975 10.6183 18.2975 12.1328V18.1683L18.3127 18.9105C18.389 21.2573 19.9374 22.2245 21.8518 22.232C23.5832 22.2395 24.8036 21.5347 25.6807 20.8674C25.7494 20.7924 25.8943 20.665 25.7723 20.4475Z" fill="black"/>
<path d="M34.0029 20.5622C33.7741 19.85 33.6521 19.1602 33.5987 18.6204C33.5911 18.5529 33.4538 18.5004 33.3928 18.5379C32.9428 18.8078 32.3783 19.0252 31.7224 19.0252C30.769 19.0252 30.441 18.118 30.3495 17.1583V10.6205C30.3266 9.23345 29.9223 8.28127 29.9223 8.28127C29.5562 7.00669 28.0994 6.18945 26.7722 6.18945C25.0027 6.18945 23.8662 6.88672 22.9891 7.569C22.951 7.59899 22.8976 7.74894 22.9128 7.79393C23.1493 8.53618 23.2027 9.29343 23.2484 9.86325C23.2561 9.93073 23.3705 9.9907 23.4239 9.96071C23.8891 9.67581 24.4841 9.38341 25.14 9.38341C26.3146 9.38341 26.4366 10.7779 26.4366 11.9326V17.6157C26.4366 17.7731 26.4519 19.2951 26.7646 20.0149C27.3214 21.312 28.2138 22.2192 30.0901 22.2192C31.8673 22.2192 33.0419 21.5369 33.919 20.8696C34.0563 20.7647 34.0182 20.6297 34.0029 20.5622Z" fill="black"/>
<path d="M9.88593 6.39014C7.71215 6.39014 6.59093 7.39481 5.86633 7.88964C5.67565 7.30484 5.51547 6.91496 4.8519 6.91496H0.481448C0.100082 6.91496 0.0390625 7.00493 0.0390625 7.34982V9.35916C0.0390625 9.69655 0.100082 9.79401 0.481448 9.79401H1.73233C2.19759 9.79401 2.27387 10.7837 2.27387 12.4856V25.5688H1.37384C1.0001 25.5688 0.931457 25.6663 0.931457 26.0037V28.013C0.931457 28.3579 0.992477 28.4479 1.37384 28.4479H7.87232C8.24606 28.4479 8.31471 28.3579 8.31471 28.013V26.0037C8.31471 25.6663 8.25369 25.5688 7.87232 25.5688H6.26296V10.6562C6.70534 10.2514 7.46045 9.47912 8.77997 9.47912C10.7326 9.47912 11.3275 11.241 11.3275 14.4275C11.3275 18.0788 10.7631 19.6233 8.55877 19.6233C8.17741 19.6233 7.86469 19.5933 7.59774 19.5483C7.55197 19.5408 7.16297 19.4958 7.14009 19.9532V21.7526C7.15535 21.925 7.24688 22.4274 7.83418 22.5473C7.83418 22.5473 8.73421 22.7273 9.52745 22.7198C13.6157 22.6973 15.3166 19.6908 15.3166 14.2775C15.3318 9.08175 13.3792 6.39014 9.88593 6.39014Z" fill="black"/>
<path d="M56.5572 18.7976H55.0775C54.7648 18.4602 54.7648 17.8079 54.7648 16.106V3.01529H55.6648C56.0462 3.01529 56.1072 2.92532 56.1072 2.58043V0.571089C56.1072 0.2337 56.0462 0.13623 55.6648 0.13623H49.1664C48.7926 0.13623 48.724 0.226202 48.724 0.571089V2.58043C48.724 2.91782 48.785 3.01529 49.1664 3.01529H50.7681V6.66658V9.54564V17.9279C50.3333 18.3328 49.5706 19.105 48.2511 19.105C46.2985 19.105 45.6959 17.3431 45.6959 14.1566C45.6959 10.5053 46.268 8.96083 48.4646 8.96083C48.8307 8.96083 49.4028 9.02831 49.4028 9.02831C49.4028 9.02831 49.8681 9.11828 49.8681 8.59345V6.88401C49.8681 6.88401 49.8147 6.19424 49.2198 6.05179C48.7697 5.94682 48.2129 5.87185 47.4883 5.87185C43.3925 5.87185 41.6992 8.90835 41.6992 14.3216C41.6992 19.5174 43.6518 22.209 47.1451 22.209C49.3189 22.209 50.6003 21.1293 51.3325 20.627C51.5232 21.2118 51.5232 21.6767 52.1792 21.6767H56.5572C56.931 21.6767 56.9996 21.5867 56.9996 21.2418V19.2325C56.9996 18.8876 56.9386 18.7976 56.5572 18.7976Z" fill="black"/>
</svg>
